<svg width="45" height="45" fill="none" xmlns="http://www.w3.org/2000/svg"><path fill-rule="evenodd" clip-rule="evenodd" d="M38.26 6.54C34.05 2.325 28.45.002 22.486 0 10.195 0 .192 10.003.187 22.297a22.259 22.259 0 002.977 11.148L0 45l11.821-3.1a22.274 22.274 0 0010.656 2.713h.01c12.289 0 22.293-10.003 22.298-22.298A22.162 22.162 0 0038.26 6.54zM22.486 40.847h-.008a18.51 18.51 0 01-9.433-2.583l-.676-.402-7.015 1.84 1.872-6.839-.44-.701a18.488 18.488 0 01-2.834-9.864C3.956 12.08 12.27 3.766 22.493 3.766a18.407 18.407 0 0113.104 5.435 18.423 18.423 0 015.423 13.113c-.005 10.219-8.318 18.533-18.534 18.533zm10.166-13.88c-.557-.28-3.296-1.627-3.807-1.813-.51-.186-.882-.279-1.253.279-.372.557-1.44 1.813-1.765 2.184-.325.372-.65.419-1.207.14-.557-.28-2.352-.868-4.48-2.766-1.657-1.477-2.775-3.302-3.1-3.86-.325-.558-.003-.83.244-1.136.603-.75 1.207-1.535 1.393-1.906.186-.372.093-.698-.047-.976-.139-.28-1.253-3.022-1.717-4.138-.453-1.086-.912-.939-1.254-.956-.325-.016-.696-.02-1.068-.02-.371 0-.975.14-1.486.698-.51.558-1.95 1.905-1.95 4.648 0 2.742 1.997 5.392 2.276 5.764.278.371 3.929 6 9.518 8.412 1.329.575 2.366.917 3.176 1.174 1.335.424 2.549.364 3.51.221 1.07-.16 3.295-1.348 3.76-2.65.464-1.3.464-2.416.325-2.649-.14-.232-.51-.372-1.068-.65z" fill="#fff"/></svg>