<svg width="48" height="28" fill="none" xmlns="http://www.w3.org/2000/svg"><path d="M39.83 16.056c-.776-.98-.554-1.416 0-2.292.01-.01 6.416-8.862 7.076-11.864l.004-.002C47.238.804 46.91 0 45.324 0h-5.248c-1.336 0-1.952.69-2.282 1.462 0 0-2.672 6.396-6.452 10.542-1.22 1.198-1.784 1.582-2.45 1.582-.328 0-.838-.384-.838-1.478V1.898C28.054.586 27.68 0 26.574 0h-8.252c-.838 0-1.336.612-1.336 1.182 0 1.244 1.89 1.53 2.086 5.03v7.594c0 1.664-.302 1.97-.972 1.97-1.784 0-6.114-6.422-8.68-13.772C8.902.578 8.396.002 7.05.002H1.8C.302.002 0 .692 0 1.464 0 2.828 1.784 9.61 8.296 18.57 12.636 24.686 18.748 28 24.308 28c3.342 0 3.75-.736 3.75-2.002 0-5.844-.302-6.396 1.372-6.396.776 0 2.112.384 5.232 3.334C38.228 26.434 38.814 28 40.81 28h5.248c1.496 0 2.254-.736 1.818-2.188-.998-3.054-7.742-9.336-8.046-9.756z" fill="#fff"/></svg>