<svg width="79" height="78" fill="none" xmlns="http://www.w3.org/2000/svg"><g clip-path="url(#clip0)" fill="#000"><path d="M59.665 46.374c-5.491 0-9.958 4.41-9.958 9.832 0 5.421 4.467 9.832 9.958 9.832 5.492 0 9.958-4.41 9.958-9.832 0-5.422-4.467-9.832-9.958-9.832zm0 14.748c-2.746 0-4.98-2.205-4.98-4.916 0-2.711 2.234-4.916 4.98-4.916 2.746 0 4.979 2.205 4.979 4.916 0 2.711-2.233 4.916-4.98 4.916zM25.642 46.374c-5.491 0-9.958 4.41-9.958 9.832 0 5.421 4.467 9.832 9.958 9.832 5.49 0 9.958-4.41 9.958-9.832 0-5.422-4.467-9.832-9.958-9.832zm0 14.748c-2.746 0-4.98-2.205-4.98-4.916 0-2.711 2.234-4.916 4.98-4.916 2.745 0 4.979 2.205 4.979 4.916 0 2.711-2.233 4.916-4.98 4.916zm40.728-42.89a2.494 2.494 0 00-2.224-1.354H51.035v4.916H62.61l6.779 13.313 4.45-2.21-7.47-14.665z"/><path d="M52.196 53.83H33.36v4.916h18.837V53.83zm-34.023 0h-8.63c-1.375 0-2.49 1.1-2.49 2.458s1.115 2.458 2.49 2.458h8.63c1.376 0 2.49-1.1 2.49-2.458s-1.115-2.458-2.49-2.458zm60.304-15.027l-4.897-6.227c-.47-.6-1.196-.95-1.965-.95h-18.09V14.42c0-1.358-1.115-2.458-2.49-2.458H9.543c-1.375 0-2.49 1.1-2.49 2.458s1.115 2.458 2.49 2.458h39.002v17.206c0 1.357 1.115 2.458 2.49 2.458h19.36l3.626 4.61V53.83h-6.888c-1.375 0-2.49 1.1-2.49 2.458 0 1.357 1.115 2.457 2.49 2.457h9.377c1.375 0 2.49-1.1 2.49-2.457V40.31a2.44 2.44 0 00-.523-1.508zm-60.47 2.573H6.556c-1.376 0-2.49 1.1-2.49 2.458s1.115 2.458 2.49 2.458h11.451c1.375 0 2.49-1.1 2.49-2.458s-1.115-2.458-2.49-2.458zm5.726-9.668H2.49c-1.375 0-2.489 1.1-2.489 2.458s1.114 2.458 2.49 2.458h21.243c1.375 0 2.49-1.1 2.49-2.458s-1.115-2.458-2.49-2.458z"/><path d="M27.8 22.04H6.555c-1.376 0-2.49 1.1-2.49 2.458 0 1.357 1.115 2.458 2.49 2.458h21.243c1.375 0 2.49-1.1 2.49-2.458s-1.115-2.458-2.49-2.458z"/></g><defs><clipPath id="clip0"><path fill="#fff" d="M0 0h79v78H0z"/></clipPath></defs></svg>