<svg width="78" height="78" fill="none" xmlns="http://www.w3.org/2000/svg"><g clip-path="url(#clip0)" fill="#000"><path d="M22.888 57.28l-9.75-4.144a2.439 2.439 0 00-3.193 1.292 2.43 2.43 0 001.292 3.193l9.75 4.144a2.436 2.436 0 003.193-1.292 2.43 2.43 0 00-1.292-3.193z"/><path d="M77.966 16.95c-.015-.25-.03-.498-.122-.747-.054-.141-.151-.239-.23-.365-.053-.088-.092-.166-.15-.244a2.341 2.341 0 00-1.014-.785c-.015-.005-.02-.02-.034-.024l-39-14.62a2.384 2.384 0 00-1.814.034L1.477 14.819c-.034.014-.049.053-.083.068-.336.161-.619.41-.853.717a2.539 2.539 0 00-.185.263c-.049.083-.122.141-.161.234a2.446 2.446 0 00-.195.956v43.879c0 .975.58 1.858 1.477 2.243l34.125 14.625h.005a2.427 2.427 0 001.813.039l.088-.034h.005l38.908-14.591A2.437 2.437 0 0078 60.936V17.061c0-.044-.034-.073-.034-.112zM34.125 71.86L4.875 59.328V20.76l29.25 12.534V71.86zm2.496-42.802L8.629 17.06 36.62 5.07l32 11.992-7.63 2.862-13.68-6.128a2.397 2.397 0 00-2.14.083l-9.56 4.06a2.451 2.451 0 00-1.486 2.258c0 .985.595 1.877 1.511 2.252l8.868 3.661-7.883 2.95zm17.004-1.17L58.5 26.06v11.88l-4.875 1.828V27.89zm-2.428-4.295l-8.336-3.437 3.452-1.467 8.19 3.666-3.306 1.238zm21.928 35.65L39 72.043v-38.67l9.75-3.656v13.572c0 .8.395 1.545 1.048 2.003a2.427 2.427 0 002.247.278l9.75-3.656a2.442 2.442 0 001.58-2.281v-15.4l9.75-3.657v38.669z"/></g><defs><clipPath id="clip0"><path fill="#fff" d="M0 0h78v78H0z"/></clipPath></defs></svg>