<svg width="43" height="43" fill="none" xmlns="http://www.w3.org/2000/svg"><path d="M34.046 30.454a5.368 5.368 0 00-5.361 5.361 5.368 5.368 0 005.361 5.362 5.368 5.368 0 005.362-5.361 5.368 5.368 0 00-5.362-5.362zm0 7.506a2.147 2.147 0 01-2.144-2.145c0-1.182.962-2.144 2.144-2.144 1.183 0 2.145.962 2.145 2.145a2.147 2.147 0 01-2.145 2.144zm8.612-28.228a1.606 1.606 0 00-1.266-.617H9.929L8.48 3.058a1.61 1.61 0 00-1.565-1.235H1.608a1.608 1.608 0 100 3.217h4.039l5.227 21.873a1.61 1.61 0 001.565 1.235h25.039c.74 0 1.384-.504 1.561-1.222l3.914-15.816c.119-.48.01-.989-.295-1.378zM36.22 24.93H13.71l-3.011-12.6h28.639l-3.118 12.6zm-21.636 5.524a5.368 5.368 0 00-5.362 5.361 5.368 5.368 0 005.362 5.362 5.368 5.368 0 005.361-5.361 5.368 5.368 0 00-5.361-5.362zm0 7.506a2.147 2.147 0 01-2.145-2.145c0-1.182.962-2.144 2.145-2.144 1.182 0 2.144.962 2.144 2.145a2.147 2.147 0 01-2.144 2.144z" fill="#fff"/></svg>